<svg width="28" height="28" viewBox="0 0 28 28" fill="none" xmlns="http://www.w3.org/2000/svg">
<path d="M13.9999 24.4708L12.8041 23.3917C10.743 21.5056 9.04159 19.8771 7.69992 18.5063C6.35825 17.1354 5.28881 15.9104 4.49159 14.8313C3.69436 13.7521 3.13534 12.775 2.8145 11.9C2.49367 11.025 2.33325 10.1403 2.33325 9.24584C2.33325 7.49584 2.92145 6.03265 4.09784 4.85626C5.27422 3.67987 6.7277 3.09167 8.45825 3.09167C9.56659 3.09167 10.5923 3.35417 11.5353 3.87917C12.4784 4.40417 13.2999 5.16251 13.9999 6.15417C14.8166 5.10417 15.6819 4.33126 16.5958 3.83542C17.5096 3.33959 18.4916 3.09167 19.5416 3.09167C21.2721 3.09167 22.7256 3.67987 23.902 4.85626C25.0784 6.03265 25.6666 7.49584 25.6666 9.24584C25.6666 10.1403 25.5062 11.025 25.1853 11.9C24.8645 12.775 24.3055 13.7521 23.5083 14.8313C22.711 15.9104 21.6416 17.1354 20.2999 18.5063C18.9583 19.8771 17.2569 21.5056 15.1958 23.3917L13.9999 24.4708ZM13.9999 22.1667C15.9638 20.3583 17.5826 18.8076 18.8562 17.5146C20.1298 16.2215 21.1409 15.0889 21.8895 14.1167C22.6381 13.1445 23.1631 12.2792 23.4645 11.5208C23.7659 10.7625 23.9166 10.0042 23.9166 9.24584C23.9166 7.96251 23.5083 6.90765 22.6916 6.08126C21.8749 5.25487 20.8249 4.84167 19.5416 4.84167C18.5499 4.84167 17.6263 5.14792 16.7708 5.76042C15.9152 6.37292 15.2249 7.23334 14.6999 8.34167H13.2708C12.7652 7.25279 12.0846 6.39723 11.2291 5.77501C10.3735 5.15279 9.44992 4.84167 8.45825 4.84167C7.17492 4.84167 6.12492 5.25487 5.30825 6.08126C4.49159 6.90765 4.08325 7.96251 4.08325 9.24584C4.08325 10.0042 4.23395 10.7674 4.53534 11.5354C4.83672 12.3035 5.36172 13.1785 6.11034 14.1604C6.85895 15.1424 7.87492 16.275 9.15825 17.5583C10.4416 18.8417 12.0555 20.3778 13.9999 22.1667Z" fill="#FCF3F3"/>
</svg>
