<svg width="30" height="30" viewBox="0 0 30 30" fill="none" xmlns="http://www.w3.org/2000/svg">
<path d="M11.5313 15C10.9688 15 10.4948 14.7865 10.1094 14.3594C9.72396 13.9323 9.57292 13.4375 9.65625 12.875L10.1562 9.125C10.3229 7.9375 10.8646 6.95312 11.7813 6.17188C12.6979 5.39062 13.7708 5 15 5C16.2292 5 17.3021 5.39062 18.2187 6.17188C19.1354 6.95312 19.6771 7.9375 19.8438 9.125L20.3437 12.875C20.4271 13.4375 20.276 13.9323 19.8906 14.3594C19.5052 14.7865 19.0312 15 18.4687 15H11.5313ZM11.5 13.125H18.5L18 9.40625C17.8958 8.67708 17.5573 8.07292 16.9844 7.59375C16.4115 7.11458 15.75 6.875 15 6.875C14.25 6.875 13.5885 7.11458 13.0156 7.59375C12.4427 8.07292 12.1042 8.67708 12 9.40625L11.5 13.125ZM5 25V22.0625C5 21.2708 5.19792 20.5937 5.59375 20.0312C5.98958 19.4687 6.5 19.0417 7.125 18.75C8.52083 18.125 9.85938 17.6562 11.1406 17.3438C12.4219 17.0312 13.7083 16.875 15 16.875C16.2917 16.875 17.5729 17.0365 18.8437 17.3594C20.1146 17.6823 21.4479 18.1458 22.8437 18.75C23.4896 19.0417 24.0104 19.4687 24.4062 20.0312C24.8021 20.5937 25 21.2708 25 22.0625V25H5ZM6.875 23.125H23.125V22.0625C23.125 21.7292 23.026 21.4115 22.8281 21.1094C22.6302 20.8073 22.3854 20.5833 22.0937 20.4375C20.7604 19.7917 19.5417 19.349 18.4375 19.1094C17.3333 18.8698 16.1875 18.75 15 18.75C13.8125 18.75 12.6563 18.8698 11.5313 19.1094C10.4063 19.349 9.1875 19.7917 7.875 20.4375C7.58333 20.5833 7.34375 20.8073 7.15625 21.1094C6.96875 21.4115 6.875 21.7292 6.875 22.0625V23.125Z" fill="#FCF3F3"/>
</svg>
