<svg width="403" height="241" viewBox="0 0 403 241" fill="none" xmlns="http://www.w3.org/2000/svg">
<path d="M318.248 224.584C318.584 220.96 320.264 219.856 324.344 219.856H337.04V217.024H324.248C318.536 217.024 315.296 220.336 315.296 225.952V235H328.088C334.16 235 336.656 232.432 337.112 224.584H318.248ZM334.04 227.44C333.344 231.04 332.096 232.144 328.016 232.144H318.128V227.44H334.04ZM348.482 217.024C342.77 217.024 339.53 220.36 339.53 225.952V235H352.346C358.058 235 361.274 231.664 361.274 226.072V217.024H348.482ZM358.466 225.952C358.466 230.536 356.834 232.144 352.25 232.144H342.362V226.072C342.362 221.512 344.018 219.856 348.578 219.856H358.466V225.952ZM377.732 217.024C374.564 217.024 372.788 218.872 372.788 221.968V226.96H379.796C382.964 226.96 384.74 225.136 384.74 222.016V217.024H377.732ZM382.964 221.968C382.964 224.344 382.1 225.16 379.748 225.16H374.588V222.016C374.588 219.664 375.428 218.824 377.78 218.824H382.964V221.968ZM377.18 235L396.764 217.024H394.22L374.66 235H377.18ZM391.508 225.064C388.34 225.064 386.564 226.912 386.564 230.008V235H393.572C396.74 235 398.516 233.176 398.516 230.056V225.064H391.508ZM396.74 230.008C396.74 232.384 395.876 233.2 393.524 233.2H388.364V230.056C388.364 227.704 389.204 226.864 391.556 226.864H396.74V230.008Z" fill="white"/>
<mask id="mask0_2_8" style="mask-type:alpha" maskUnits="userSpaceOnUse" x="33" y="0" width="370" height="173">
<rect x="33" width="370" height="173" fill="#1C1C1C"/>
</mask>
<g mask="url(#mask0_2_8)">
<mask id="path-3-inside-1_2_8" fill="white">
<path d="M364.929 206.601C357.685 237.576 341.087 265.573 317.387 286.791C293.686 308.009 264.032 321.421 232.447 325.207C200.862 328.993 168.878 322.969 140.834 307.953C112.791 292.937 90.0462 269.657 75.6878 241.271C61.3295 212.885 56.0525 180.769 60.5733 149.281C65.094 117.793 79.1934 88.4588 100.958 65.2592C122.722 42.0595 151.098 26.1182 182.233 19.5987C213.369 13.0793 245.756 16.2974 275 28.8165L214 171.309L364.929 206.601Z"/>
</mask>
<path d="M364.929 206.601C357.685 237.576 341.087 265.573 317.387 286.791C293.686 308.009 264.032 321.421 232.447 325.207C200.862 328.993 168.878 322.969 140.834 307.953C112.791 292.937 90.0462 269.657 75.6878 241.271C61.3295 212.885 56.0525 180.769 60.5733 149.281C65.094 117.793 79.1934 88.4588 100.958 65.2592C122.722 42.0595 151.098 26.1182 182.233 19.5987C213.369 13.0793 245.756 16.2974 275 28.8165L214 171.309L364.929 206.601Z" stroke="#B8FF01" stroke-width="6" stroke-dasharray="40 4" mask="url(#path-3-inside-1_2_8)"/>
<rect x="208" y="38" width="58" height="179" fill="#0F0F0F"/>
<rect x="264.874" y="28" width="16" height="18" transform="rotate(22.4509 264.874 28)" fill="#101010"/>
<path opacity="0.2" d="M356 171.309C356 143.317 347.727 115.951 332.221 92.6467C316.715 69.3428 294.668 51.1414 268.849 40.3294L249.34 86.9176C265.975 93.8839 280.18 105.611 290.171 120.626C300.162 135.641 305.492 153.274 305.492 171.309H356Z" fill="url(#paint0_radial_2_8)"/>
<path opacity="0.75" d="M269.146 40.4539C247.429 31.3018 223.775 27.6986 200.318 29.9692C176.861 32.2399 154.338 40.3129 134.78 53.4604C115.222 66.608 99.243 84.4166 88.2849 105.281C77.3267 126.145 71.7336 149.408 72.0098 172.973L122.514 172.381C122.337 157.198 125.94 142.209 133.001 128.766C140.061 115.323 150.356 103.849 162.958 95.378C175.559 86.9069 190.071 81.7054 205.185 80.2424C220.298 78.7795 235.538 81.101 249.531 86.9978L269.146 40.4539Z" fill="url(#paint1_radial_2_8)"/>
<path d="M277.279 29.6285C276.097 29.1185 274.909 28.6246 273.714 28.1469L249.847 87.8451C250.501 88.1065 251.151 88.3768 251.798 88.6559L277.279 29.6285Z" fill="url(#paint2_radial_2_8)"/>
<circle cx="214" cy="173.309" r="93" stroke="#B8FF01" stroke-width="2" stroke-dasharray="1 8"/>
<circle cx="214" cy="171.309" r="101.5" stroke="#B8FF01" stroke-width="3" stroke-dasharray="1 8"/>
<circle opacity="0.2" cx="214" cy="171.308" r="153.5" transform="rotate(-5.7335 214 171.308)" stroke="#B8FF01" stroke-width="3" stroke-dasharray="40 4"/>
<path d="M293.56 161.009C293.834 163.636 293.982 166.301 293.998 168.997L292.998 169.003C292.999 169.169 293 169.334 293 169.5C293 169.666 292.999 169.831 292.998 169.997L293.998 170.003C293.982 172.699 293.834 175.364 293.56 177.991L292.566 177.887C292.531 178.216 292.495 178.545 292.457 178.872L293.45 178.988C293.138 181.661 292.696 184.293 292.131 186.879L291.154 186.666C291.083 186.988 291.011 187.309 290.937 187.63L291.911 187.856C291.305 190.472 290.571 193.039 289.718 195.55L288.772 195.229C288.666 195.54 288.558 195.851 288.448 196.161L289.391 196.495C288.497 199.022 287.481 201.491 286.351 203.895L285.446 203.47C285.306 203.768 285.164 204.065 285.02 204.361L285.919 204.798C284.75 207.206 283.464 209.547 282.07 211.813L281.219 211.289C281.046 211.569 280.872 211.849 280.695 212.127L281.541 212.662C280.112 214.922 278.574 217.105 276.934 219.204L276.146 218.588C275.943 218.848 275.739 219.106 275.533 219.363L276.313 219.988C274.643 222.072 272.872 224.071 271.007 225.977L270.293 225.278C270.062 225.513 269.831 225.747 269.597 225.98L270.303 226.688C268.414 228.571 266.432 230.361 264.364 232.049L263.732 231.274C263.476 231.482 263.22 231.689 262.962 231.894L263.585 232.677C261.5 234.336 259.33 235.893 257.084 237.341L256.542 236.5C256.266 236.678 255.988 236.855 255.708 237.03L256.239 237.877C253.984 239.291 251.654 240.595 249.255 241.782L248.812 240.885C248.517 241.031 248.221 241.176 247.924 241.318L248.356 242.22C245.959 243.368 243.496 244.4 240.975 245.309L240.636 244.368C240.327 244.48 240.017 244.589 239.706 244.697L240.033 245.642C237.526 246.509 234.963 247.255 232.35 247.872L232.12 246.899C231.8 246.975 231.479 247.048 231.157 247.12L231.374 248.096C228.79 248.672 226.159 249.122 223.488 249.44L223.37 248.447C223.042 248.486 222.714 248.523 222.385 248.558L222.491 249.552C219.864 249.831 217.199 249.982 214.503 249.998L214.497 248.998C214.434 248.999 214.371 248.999 214.308 248.999C214.205 249 214.103 249 214 249C213.834 249 213.669 248.999 213.503 248.998L213.497 249.998C210.801 249.982 208.136 249.831 205.509 249.552L205.615 248.558C205.286 248.523 204.958 248.486 204.63 248.447L204.512 249.44C201.841 249.122 199.21 248.672 196.626 248.096L196.843 247.12C196.521 247.048 196.2 246.975 195.88 246.899L195.65 247.872C193.037 247.255 190.474 246.509 187.967 245.642L188.294 244.697C187.983 244.589 187.673 244.48 187.364 244.368L187.025 245.309C184.504 244.4 182.041 243.368 179.644 242.22L180.076 241.318C179.779 241.176 179.483 241.031 179.188 240.885L178.745 241.782C176.346 240.595 174.016 239.291 171.761 237.877L172.292 237.03C172.012 236.855 171.734 236.678 171.458 236.5L170.916 237.341C168.67 235.893 166.5 234.336 164.415 232.677L165.038 231.894C164.78 231.689 164.524 231.482 164.268 231.274L163.636 232.049C161.568 230.361 159.586 228.571 157.697 226.688L158.403 225.98C158.169 225.747 157.938 225.513 157.707 225.278L156.992 225.977C155.128 224.071 153.357 222.072 151.687 219.988L152.467 219.363C152.261 219.106 152.057 218.848 151.854 218.588L151.066 219.204C149.426 217.105 147.888 214.922 146.459 212.662L147.305 212.127C147.128 211.849 146.954 211.569 146.781 211.289L145.93 211.813C144.536 209.547 143.25 207.206 142.081 204.798L142.98 204.361C142.836 204.065 142.694 203.768 142.554 203.47L141.649 203.895C140.519 201.491 139.503 199.022 138.609 196.495L139.552 196.161C139.442 195.851 139.334 195.54 139.228 195.229L138.282 195.55C137.429 193.039 136.695 190.472 136.089 187.856L137.063 187.63C136.989 187.309 136.917 186.988 136.846 186.666L135.869 186.879C135.304 184.293 134.862 181.661 134.55 178.988L135.543 178.872C135.505 178.545 135.469 178.216 135.434 177.887L134.44 177.991C134.166 175.364 134.018 172.699 134.002 170.003L135.002 169.997C135.001 169.831 135 169.666 135 169.5C135 169.334 135.001 169.169 135.002 169.003L134.002 168.997C134.018 166.301 134.166 163.636 134.44 161.009L135.434 161.113C135.469 160.784 135.505 160.455 135.543 160.128L134.55 160.012C134.862 157.339 135.304 154.707 135.869 152.121L136.846 152.334C136.917 152.012 136.989 151.691 137.063 151.37L136.089 151.144C136.695 148.528 137.429 145.961 138.282 143.45L139.228 143.771C139.334 143.46 139.442 143.149 139.552 142.839L138.609 142.505C139.503 139.978 140.519 137.509 141.649 135.105L142.554 135.53C142.694 135.232 142.836 134.935 142.98 134.639L142.081 134.202C143.25 131.794 144.536 129.453 145.93 127.187L146.781 127.711C146.954 127.431 147.128 127.151 147.305 126.873L146.459 126.338C147.888 124.078 149.427 121.895 151.066 119.796L151.854 120.412C152.057 120.152 152.261 119.894 152.467 119.637L151.687 119.012C153.357 116.928 155.128 114.929 156.993 113.023L157.707 113.722C157.938 113.487 158.169 113.253 158.403 113.02L157.697 112.312C159.586 110.429 161.568 108.639 163.636 106.951L164.268 107.726C164.524 107.518 164.78 107.311 165.038 107.106L164.415 106.323C166.5 104.664 168.67 103.107 170.916 101.659L171.458 102.5C171.734 102.322 172.012 102.145 172.292 101.97L171.761 101.123C174.016 99.7089 176.346 98.405 178.745 97.2184L179.188 98.1147C179.483 97.9687 179.779 97.8244 180.076 97.682L179.644 96.7802C182.041 95.6317 184.504 94.5995 187.025 93.6911L187.364 94.6319C187.673 94.5205 187.983 94.4109 188.294 94.3033L187.967 93.3583C190.474 92.4905 193.037 91.7446 195.65 91.1276L195.88 92.1009C196.2 92.0252 196.521 91.9515 196.843 91.8798L196.626 90.9038C199.21 90.3279 201.841 89.8778 204.512 89.5602L204.63 90.5532C204.958 90.5143 205.286 90.4773 205.615 90.4424L205.509 89.448C208.136 89.1692 210.801 89.0183 213.497 89.0016L213.503 90.0015C213.669 90.0005 213.834 90 214 90C214.166 90 214.331 90.0005 214.497 90.0015L214.503 89.0016C217.199 89.0183 219.864 89.1692 222.491 89.448L222.385 90.4424C222.714 90.4773 223.042 90.5143 223.37 90.5532L223.488 89.5602C226.159 89.8778 228.79 90.3279 231.374 90.9038L231.157 91.8798C231.479 91.9515 231.8 92.0252 232.12 92.1009L232.35 91.1276C234.963 91.7446 237.526 92.4905 240.033 93.3583L239.706 94.3033C240.017 94.4109 240.327 94.5205 240.636 94.6319L240.975 93.6911C243.496 94.5995 245.959 95.6317 248.356 96.7802L247.924 97.682C248.221 97.8244 248.517 97.9687 248.812 98.1147L249.255 97.2184C251.654 98.405 253.984 99.7089 256.239 101.123L255.708 101.97C255.988 102.145 256.266 102.322 256.542 102.5L257.084 101.659C259.33 103.107 261.5 104.664 263.585 106.323L262.962 107.106C263.22 107.311 263.476 107.518 263.732 107.726L264.364 106.951C266.432 108.639 268.414 110.429 270.303 112.312L269.597 113.02C269.831 113.253 270.062 113.487 270.293 113.722L271.008 113.023C272.872 114.929 274.643 116.928 276.313 119.012L275.533 119.637C275.739 119.894 275.943 120.152 276.146 120.412L276.934 119.796C278.574 121.895 280.112 124.078 281.541 126.338L280.695 126.873C280.872 127.151 281.046 127.431 281.219 127.711L282.07 127.187C283.464 129.453 284.75 131.794 285.919 134.202L285.02 134.639C285.164 134.935 285.306 135.232 285.446 135.53L286.351 135.105C287.481 137.509 288.497 139.978 289.391 142.505L288.448 142.839C288.558 143.149 288.666 143.46 288.772 143.771L289.718 143.45C290.571 145.961 291.305 148.528 291.911 151.144L290.937 151.37C291.011 151.691 291.083 152.012 291.154 152.334L292.131 152.121C292.696 154.707 293.138 157.339 293.45 160.012L292.457 160.128C292.495 160.455 292.531 160.784 292.566 161.113L293.56 161.009Z" stroke="#B8FF01" stroke-opacity="0.7" stroke-width="2" stroke-dasharray="1 8"/>
<circle cx="214" cy="169" r="69" stroke="#B8FF01" stroke-opacity="0.6" stroke-width="2" stroke-dasharray="1 8"/>
<path d="M273.466 159.393C273.798 161.89 273.978 164.436 273.998 167.02L272.998 167.027C272.999 167.185 273 167.342 273 167.5C273 167.658 272.999 167.815 272.998 167.973L273.998 167.98C273.978 170.564 273.798 173.11 273.466 175.607L272.475 175.475C272.434 175.785 272.39 176.095 272.344 176.404L273.333 176.551C272.954 179.098 272.418 181.594 271.734 184.027L270.771 183.757C270.686 184.058 270.599 184.359 270.51 184.659L271.468 184.945C270.735 187.405 269.85 189.799 268.825 192.117L267.91 191.712C267.784 191.999 267.655 192.285 267.523 192.569L268.431 192.988C267.359 195.313 266.144 197.559 264.798 199.712L263.95 199.182C263.783 199.448 263.615 199.713 263.445 199.976L264.285 200.519C262.896 202.665 261.376 204.716 259.736 206.661L258.971 206.017C258.769 206.257 258.565 206.495 258.36 206.731L259.114 207.388C257.439 209.312 255.645 211.129 253.743 212.825L253.077 212.079C252.843 212.288 252.608 212.495 252.371 212.7L253.025 213.456C251.097 215.122 249.064 216.666 246.937 218.078L246.384 217.244C246.123 217.418 245.86 217.589 245.596 217.758L246.136 218.6C243.995 219.971 241.763 221.21 239.45 222.304L239.022 221.4C238.739 221.534 238.455 221.665 238.17 221.795L238.583 222.705C236.273 223.753 233.886 224.657 231.432 225.407L231.14 224.451C230.841 224.542 230.541 224.631 230.24 224.718L230.517 225.679C228.087 226.379 225.594 226.928 223.049 227.316L222.898 226.328C222.59 226.375 222.28 226.42 221.97 226.462L222.105 227.453C219.609 227.793 217.064 227.978 214.48 227.998L214.472 226.998C214.315 226.999 214.158 227 214 227C213.842 227 213.685 226.999 213.528 226.998L213.52 227.998C210.936 227.978 208.391 227.793 205.895 227.453L206.03 226.462C205.72 226.42 205.41 226.375 205.102 226.328L204.951 227.316C202.406 226.928 199.913 226.379 197.483 225.679L197.76 224.718C197.459 224.631 197.159 224.542 196.86 224.451L196.568 225.407C194.114 224.657 191.727 223.753 189.417 222.705L189.83 221.795C189.545 221.665 189.261 221.534 188.978 221.4L188.55 222.304C186.237 221.21 184.005 219.971 181.864 218.6L182.404 217.758C182.14 217.589 181.877 217.418 181.616 217.244L181.063 218.078C178.936 216.666 176.903 215.122 174.975 213.456L175.629 212.7C175.392 212.495 175.157 212.288 174.923 212.079L174.257 212.825C172.355 211.129 170.561 209.312 168.886 207.387L169.64 206.731C169.435 206.495 169.231 206.257 169.029 206.017L168.264 206.661C166.624 204.716 165.104 202.665 163.715 200.519L164.555 199.976C164.385 199.713 164.217 199.448 164.05 199.182L163.202 199.712C161.856 197.559 160.641 195.313 159.569 192.988L160.477 192.569C160.345 192.285 160.216 191.999 160.09 191.712L159.175 192.117C158.15 189.799 157.265 187.405 156.532 184.945L157.49 184.659C157.401 184.359 157.314 184.058 157.229 183.757L156.266 184.027C155.582 181.594 155.046 179.098 154.667 176.551L155.656 176.404C155.61 176.095 155.566 175.785 155.525 175.475L154.534 175.607C154.202 173.11 154.022 170.564 154.002 167.98L155.002 167.973C155.001 167.815 155 167.658 155 167.5C155 167.342 155.001 167.185 155.002 167.027L154.002 167.02C154.022 164.436 154.202 161.89 154.534 159.393L155.525 159.525C155.566 159.215 155.61 158.905 155.656 158.596L154.667 158.449C155.046 155.902 155.582 153.406 156.266 150.973L157.229 151.243C157.314 150.942 157.401 150.641 157.49 150.341L156.532 150.055C157.265 147.595 158.15 145.201 159.175 142.883L160.09 143.288C160.216 143.001 160.345 142.715 160.477 142.431L159.569 142.012C160.641 139.687 161.856 137.441 163.202 135.288L164.05 135.818C164.217 135.552 164.385 135.287 164.555 135.024L163.715 134.481C165.104 132.335 166.624 130.284 168.264 128.339L169.029 128.983C169.231 128.743 169.435 128.505 169.64 128.269L168.886 127.613C170.561 125.688 172.355 123.871 174.257 122.175L174.923 122.921C175.157 122.712 175.392 122.505 175.629 122.3L174.975 121.544C176.903 119.878 178.936 118.334 181.063 116.922L181.616 117.756C181.877 117.582 182.14 117.411 182.404 117.242L181.864 116.4C184.005 115.029 186.237 113.79 188.55 112.696L188.978 113.6C189.261 113.466 189.545 113.335 189.83 113.205L189.417 112.295C191.727 111.247 194.114 110.343 196.568 109.593L196.86 110.549C197.159 110.458 197.459 110.369 197.76 110.282L197.483 109.321C199.913 108.621 202.406 108.072 204.951 107.684L205.102 108.672C205.41 108.625 205.72 108.58 206.03 108.538L205.895 107.547C208.391 107.207 210.936 107.022 213.52 107.002L213.528 108.002C213.685 108.001 213.842 108 214 108C214.158 108 214.315 108.001 214.472 108.002L214.48 107.002C217.064 107.022 219.609 107.207 222.105 107.547L221.97 108.538C222.28 108.58 222.59 108.625 222.898 108.672L223.049 107.684C225.594 108.072 228.087 108.621 230.517 109.321L230.24 110.282C230.541 110.369 230.841 110.458 231.14 110.549L231.432 109.593C233.886 110.343 236.273 111.247 238.583 112.295L238.17 113.205C238.455 113.335 238.739 113.466 239.022 113.6L239.45 112.696C241.763 113.79 243.995 115.029 246.136 116.4L245.596 117.242C245.86 117.411 246.123 117.582 246.384 117.756L246.937 116.922C249.064 118.334 251.097 119.878 253.025 121.544L252.371 122.3C252.608 122.505 252.843 122.712 253.077 122.921L253.743 122.175C255.645 123.871 257.439 125.688 259.114 127.613L258.36 128.269C258.565 128.505 258.769 128.743 258.971 128.983L259.736 128.339C261.376 130.284 262.896 132.335 264.285 134.481L263.445 135.024C263.615 135.287 263.783 135.552 263.95 135.818L264.798 135.288C266.144 137.441 267.359 139.687 268.431 142.012L267.523 142.431C267.655 142.715 267.784 143.001 267.91 143.288L268.825 142.883C269.85 145.201 270.735 147.595 271.468 150.055L270.51 150.341C270.599 150.641 270.686 150.942 270.771 151.243L271.734 150.973C272.418 153.406 272.954 155.902 273.333 158.449L272.344 158.596C272.39 158.905 272.434 159.215 272.475 159.525L273.466 159.393Z" stroke="#B8FF01" stroke-opacity="0.5" stroke-width="2" stroke-dasharray="1 8"/>
<circle cx="214" cy="164" r="49" stroke="#B8FF01" stroke-opacity="0.4" stroke-width="2" stroke-dasharray="1 8"/>
<circle cx="215" cy="162" r="41" stroke="#B8FF01" stroke-opacity="0.3" stroke-width="2" stroke-dasharray="1 8"/>
<circle cx="214" cy="163.309" r="35.5" stroke="#B8FF01" stroke-opacity="0.2" stroke-dasharray="1 8"/>
<circle cx="215" cy="163.309" r="30.5" stroke="#B8FF01" stroke-opacity="0.1" stroke-dasharray="1 8"/>
<path d="M169.9 118.55H164V156H169.9V118.55ZM220.763 150.05H181.713C183.013 142.95 185.913 140.25 194.313 140.25H220.763V118.55H176.013V124.45H214.863V134.3H196.863C180.463 134.4 176.213 139.2 175.263 156H220.763V150.05ZM232.843 134.3C234.143 126.9 236.943 124.45 245.393 124.45H271.843V118.55H245.193C232.493 118.55 227.293 124 226.343 140.25H265.593C264.093 147.9 261.493 150.05 253.043 150.05H226.543V156H253.243C265.793 156 271.043 150.65 271.993 134.3H232.843Z" fill="white"/>
<path d="M80.697 160.761C78.079 160.761 76.594 162.29 76.594 164.853V169H82.468C85.086 169 86.56 167.471 86.56 164.908V160.761H80.697ZM85.273 164.853C85.273 166.954 84.525 167.691 82.424 167.691H77.892V164.908C77.892 162.818 78.651 162.059 80.741 162.059H85.273V164.853Z" fill="white"/>
<path d="M91.516 137.691H82.925C83.211 136.129 83.849 135.535 85.697 135.535H91.516V130.761H81.671V132.059H90.218V134.226H86.258C82.65 134.248 81.715 135.304 81.506 139H91.516V137.691ZM96.8796 130.761C94.2616 130.761 92.7766 132.29 92.7766 134.853V139H98.6506C101.269 139 102.743 137.471 102.743 134.908V130.761H96.8796ZM101.456 134.853C101.456 136.954 100.708 137.691 98.6066 137.691H94.0746V134.908C94.0746 132.818 94.8336 132.059 96.9236 132.059H101.456V134.853Z" fill="white"/>
<path d="M193 167.444L198.82 165.116L198.292 163.796L189.136 167.456V164.012H187.72V173H189.136V168.992L191.464 168.044L198.004 173.276L198.904 172.184L193 167.444ZM214.371 164.012H210.771C209.835 164.012 208.515 164.24 207.735 164.936V164.012H204.171C201.447 164.012 199.695 165.656 199.695 168.068V173H201.123V168.536C201.123 166.244 201.939 165.428 204.207 165.428H206.307V172.988H207.735V168.536C207.735 166.256 208.563 165.428 210.843 165.428H212.943V173H214.371V164.012ZM223.406 163.724L215.09 172.184L216.014 173.132L224.33 164.66L223.406 163.724ZM235.916 164.012H234.512V167.792H226.46V164.012H225.044V173H226.46V169.22H234.512V173H235.916V164.012ZM244.74 169.22H248.172V164.012H241.776C238.908 164.012 237.3 165.692 237.3 168.476V173H238.716V169.22H242.496L247.596 173.276L248.484 172.184L244.74 169.22ZM238.8 167.792C239.172 165.776 240.588 165.428 241.596 165.428H246.768V167.792H238.8Z" fill="white"/>
<path d="M106.141 94.761V98.226H98.848C99.167 96.356 99.838 96.18 102.269 96.015L102.192 94.728C100.377 94.827 99.178 95.201 98.54 95.839C97.913 96.455 97.517 97.687 97.418 99.535H106.097C105.91 101.086 105.294 101.57 102.621 101.735L102.698 103.033L103.358 103C106.086 102.868 107.439 101.449 107.439 98.908V94.761H106.141ZM112.74 94.761C110.122 94.761 108.637 96.29 108.637 98.853V103H114.511C117.129 103 118.603 101.471 118.603 98.908V94.761H112.74ZM117.316 98.853C117.316 100.954 116.568 101.691 114.467 101.691H109.935V98.908C109.935 96.818 110.694 96.059 112.784 96.059H117.316V98.853Z" fill="white"/>
<path d="M125.947 67.226C126.101 65.565 126.871 65.059 128.741 65.059H134.56V63.761H128.697C126.079 63.761 124.594 65.279 124.594 67.853V72H130.457C133.24 72 134.384 70.823 134.593 67.226H125.947ZM133.185 68.535C132.866 70.185 132.294 70.691 130.424 70.691H125.892V68.535H133.185ZM139.804 63.761C137.186 63.761 135.701 65.29 135.701 67.853V72H141.575C144.193 72 145.667 70.471 145.667 67.908V63.761H139.804ZM144.38 67.853C144.38 69.954 143.632 70.691 141.531 70.691H136.999V67.908C136.999 65.818 137.758 65.059 139.848 65.059H144.38V67.853Z" fill="white"/>
<path d="M164.697 42.761C162.079 42.761 160.594 44.29 160.594 46.853V51H166.468C169.086 51 170.56 49.471 170.56 46.908V42.761H164.697ZM169.273 46.226H161.925C162.123 44.664 162.86 44.059 164.741 44.059H169.273V46.226ZM169.24 47.535C169.064 49.086 168.272 49.691 166.424 49.691H161.892V47.535H169.24ZM175.858 42.761C173.24 42.761 171.755 44.29 171.755 46.853V51H177.629C180.247 51 181.721 49.471 181.721 46.908V42.761H175.858ZM180.434 46.853C180.434 48.954 179.686 49.691 177.585 49.691H173.053V46.908C173.053 44.818 173.812 44.059 175.902 44.059H180.434V46.853Z" fill="white"/>
<path d="M199.958 34.761H198.66V43H199.958V34.761ZM205.329 34.761C202.711 34.761 201.226 36.29 201.226 38.853V43H207.1C209.718 43 211.192 41.471 211.192 38.908V34.761H205.329ZM209.905 38.853C209.905 40.954 209.157 41.691 207.056 41.691H202.524V38.908C202.524 36.818 203.283 36.059 205.373 36.059H209.905V38.853ZM216.49 34.761C213.872 34.761 212.387 36.29 212.387 38.853V43H218.261C220.879 43 222.353 41.471 222.353 38.908V34.761H216.49ZM221.066 38.853C221.066 40.954 220.318 41.691 218.217 41.691H213.685V38.908C213.685 36.818 214.444 36.059 216.534 36.059H221.066V38.853Z" fill="white"/>
<path d="M240.958 39.761H239.66V48H240.958V39.761ZM252.148 46.691H243.557C243.843 45.129 244.481 44.535 246.329 44.535H252.148V39.761H242.303V41.059H250.85V43.226H246.89C243.282 43.248 242.347 44.304 242.138 48H252.148V46.691ZM257.511 39.761C254.893 39.761 253.408 41.29 253.408 43.853V48H259.282C261.9 48 263.374 46.471 263.374 43.908V39.761H257.511ZM262.087 43.853C262.087 45.954 261.339 46.691 259.238 46.691H254.706V43.908C254.706 41.818 255.465 41.059 257.555 41.059H262.087V43.853Z" fill="white"/>
<path d="M270.958 55.761H269.66V64H270.958V55.761ZM280.773 55.761V59.226H273.48C273.799 57.356 274.47 57.18 276.901 57.015L276.824 55.728C275.009 55.827 273.81 56.201 273.172 56.839C272.545 57.455 272.149 58.687 272.05 60.535H280.729C280.542 62.086 279.926 62.57 277.253 62.735L277.33 64.033L277.99 64C280.718 63.868 282.071 62.449 282.071 59.908V55.761H280.773ZM287.372 55.761C284.754 55.761 283.269 57.29 283.269 59.853V64H289.143C291.761 64 293.235 62.471 293.235 59.908V55.761H287.372ZM291.948 59.853C291.948 61.954 291.2 62.691 289.099 62.691H284.567V59.908C284.567 57.818 285.326 57.059 287.416 57.059H291.948V59.853Z" fill="white"/>
<path d="M293.958 76.761H292.66V85H293.958V76.761ZM296.579 80.226C296.733 78.565 297.503 78.059 299.373 78.059H305.192V76.761H299.329C296.711 76.761 295.226 78.279 295.226 80.853V85H301.089C303.872 85 305.016 83.823 305.225 80.226H296.579ZM303.817 81.535C303.498 83.185 302.926 83.691 301.056 83.691H296.524V81.535H303.817ZM310.436 76.761C307.818 76.761 306.333 78.29 306.333 80.853V85H312.207C314.825 85 316.299 83.471 316.299 80.908V76.761H310.436ZM315.012 80.853C315.012 82.954 314.264 83.691 312.163 83.691H307.631V80.908C307.631 78.818 308.39 78.059 310.48 78.059H315.012V80.853Z" fill="white"/>
<path d="M313.958 105.761H312.66V114H313.958V105.761ZM319.329 105.761C316.711 105.761 315.226 107.29 315.226 109.853V114H321.1C323.718 114 325.192 112.471 325.192 109.908V105.761H319.329ZM323.905 109.226H316.557C316.755 107.664 317.492 107.059 319.373 107.059H323.905V109.226ZM323.872 110.535C323.696 112.086 322.904 112.691 321.056 112.691H316.524V110.535H323.872ZM330.49 105.761C327.872 105.761 326.387 107.29 326.387 109.853V114H332.261C334.879 114 336.353 112.471 336.353 109.908V105.761H330.49ZM335.066 109.853C335.066 111.954 334.318 112.691 332.217 112.691H327.685V109.908C327.685 107.818 328.444 107.059 330.534 107.059H335.066V109.853Z" fill="white"/>
<path d="M327.516 144.691H318.925C319.211 143.129 319.849 142.535 321.697 142.535H327.516V137.761H317.671V139.059H326.218V141.226H322.258C318.65 141.248 317.715 142.304 317.506 146H327.516V144.691ZM332.88 137.761C330.262 137.761 328.777 139.29 328.777 141.853V146H334.651C337.269 146 338.743 144.471 338.743 141.908V137.761H332.88ZM337.456 141.853C337.456 143.954 336.708 144.691 334.607 144.691H330.075V141.908C330.075 139.818 330.834 139.059 332.924 139.059H337.456V141.853ZM344.041 137.761C341.423 137.761 339.938 139.29 339.938 141.853V146H345.812C348.43 146 349.904 144.471 349.904 141.908V137.761H344.041ZM348.617 141.853C348.617 143.954 347.869 144.691 345.768 144.691H341.236V141.908C341.236 139.818 341.995 139.059 344.085 139.059H348.617V141.853Z" fill="white"/>
<g filter="url(#filter0_f_2_8)">
<path d="M46.2619 184.948C50.5119 111.564 103.481 -22.224 281.359 29.6945" stroke="#B8FF01" stroke-width="4"/>
</g>
</g>
<path d="M7.686 220.518C3.402 220.518 0.972 223.02 0.972 227.214V234H10.584C14.868 234 17.28 231.498 17.28 227.304V220.518H7.686ZM15.174 226.188H3.15C3.474 223.632 4.68 222.642 7.758 222.642H15.174V226.188ZM15.12 228.33C14.832 230.868 13.536 231.858 10.512 231.858H3.096V228.33H15.12ZM35.5437 220.518H25.9497C21.6657 220.518 19.2357 223.002 19.2357 227.214V234H21.3777V228.33H33.4377V234H35.5437V220.518ZM33.4377 226.188H21.4677C21.8097 223.254 22.6557 222.642 26.0397 222.642H33.4377V226.188ZM53.0664 220.518H43.6704C39.0984 220.518 37.2084 222.516 36.9204 228.258L39.0084 228.384C39.2064 224.82 39.5844 223.92 40.8084 223.254C41.5284 222.858 42.6084 222.642 44.0664 222.642V234H46.2084V222.642H53.0664V220.518ZM68.7109 220.518H59.3149C54.7429 220.518 52.8529 222.516 52.5649 228.258L54.6529 228.384C54.8509 224.82 55.2289 223.92 56.4529 223.254C57.1729 222.858 58.2529 222.642 59.7109 222.642V234H61.8529V222.642H68.7109V220.518ZM85.0261 231.858H70.8421V228.33H85.0261V226.188H70.8961C71.2201 223.632 72.4261 222.642 75.5041 222.642H85.0261V220.518H75.4321C71.1301 220.518 68.7181 223.038 68.7181 227.214V234H85.0261V231.858ZM97.9836 228.33H103.132V220.518H93.5376C89.2356 220.518 86.8236 223.038 86.8236 227.214V234H88.9476V228.33H94.6176L102.268 234.414L103.6 232.776L97.9836 228.33ZM89.0736 226.188C89.6316 223.164 91.7556 222.642 93.2676 222.642H101.026V226.188H89.0736ZM119.288 220.518V226.188H107.21V220.518H105.086V228.33H119.234C118.946 230.868 117.65 231.858 114.626 231.858H105.086V234H114.698C118.964 234 121.394 231.498 121.394 227.304V220.518H119.288Z" fill="white"/>
<g filter="url(#filter1_f_2_8)">
<rect x="142" y="220" width="34" height="14" fill="#B8FF01"/>
</g>
<g filter="url(#filter2_f_2_8)">
<rect x="180" y="220" width="34" height="14" fill="#B8FF01"/>
</g>
<g filter="url(#filter3_f_2_8)">
<rect x="218" y="220" width="34" height="14" fill="#B8FF01"/>
</g>
<rect x="256" y="223" width="34" height="9" fill="#29BEB6" fill-opacity="0.5"/>
<rect x="142" y="223" width="34" height="9" fill="#B8FF01"/>
<rect x="180" y="223" width="34" height="9" fill="#B8FF01"/>
<rect x="218" y="223" width="34" height="9" fill="#B8FF01"/>
<defs>
<filter id="filter0_f_2_8" x="24.2653" y="-3.97809" width="277.654" height="209.042" filterUnits="userSpaceOnUse" color-interpolation-filters="sRGB">
<feFlood flood-opacity="0" result="BackgroundImageFix"/>
<feBlend mode="normal" in="SourceGraphic" in2="BackgroundImageFix" result="shape"/>
<feGaussianBlur stdDeviation="10" result="effect1_foregroundBlur_2_8"/>
</filter>
<filter id="filter1_f_2_8" x="136" y="214" width="46" height="26" filterUnits="userSpaceOnUse" color-interpolation-filters="sRGB">
<feFlood flood-opacity="0" result="BackgroundImageFix"/>
<feBlend mode="normal" in="SourceGraphic" in2="BackgroundImageFix" result="shape"/>
<feGaussianBlur stdDeviation="3" result="effect1_foregroundBlur_2_8"/>
</filter>
<filter id="filter2_f_2_8" x="174" y="214" width="46" height="26" filterUnits="userSpaceOnUse" color-interpolation-filters="sRGB">
<feFlood flood-opacity="0" result="BackgroundImageFix"/>
<feBlend mode="normal" in="SourceGraphic" in2="BackgroundImageFix" result="shape"/>
<feGaussianBlur stdDeviation="3" result="effect1_foregroundBlur_2_8"/>
</filter>
<filter id="filter3_f_2_8" x="212" y="214" width="46" height="26" filterUnits="userSpaceOnUse" color-interpolation-filters="sRGB">
<feFlood flood-opacity="0" result="BackgroundImageFix"/>
<feBlend mode="normal" in="SourceGraphic" in2="BackgroundImageFix" result="shape"/>
<feGaussianBlur stdDeviation="3" result="effect1_foregroundBlur_2_8"/>
</filter>
<radialGradient id="paint0_radial_2_8" cx="0" cy="0" r="1" gradientUnits="userSpaceOnUse" gradientTransform="translate(214 174.809) rotate(-90) scale(154.5 138.147)">
<stop offset="0.698873" stop-color="#111111"/>
<stop offset="1" stop-color="#B8FF01" stop-opacity="0.8"/>
</radialGradient>
<radialGradient id="paint1_radial_2_8" cx="0" cy="0" r="1" gradientUnits="userSpaceOnUse" gradientTransform="translate(214 174.809) rotate(-90) scale(154.5 138.147)">
<stop offset="0.698873" stop-color="#111111"/>
<stop offset="1" stop-color="#B8FF01" stop-opacity="0.8"/>
</radialGradient>
<radialGradient id="paint2_radial_2_8" cx="0" cy="0" r="1" gradientUnits="userSpaceOnUse" gradientTransform="translate(227 160) rotate(-73.5684) scale(153.781 137.503)">
<stop offset="0.442287" stop-color="#B8FF01"/>
<stop offset="0.778527" stop-color="#29BEB6"/>
</radialGradient>
</defs>
</svg>
